<svg width="23" height="23" viewBox="0 0 23 23" fill="none" xmlns="http://www.w3.org/2000/svg">
<path d="M22.1399 20.6835C22.1399 21.5659 21.4079 22.2794 20.503 22.2794H1.6352C0.732788 22.2794 0 21.5659 0 20.6835V1.59592C0 0.714406 0.732788 0 1.6352 0H20.503C21.4071 0 22.1399 0.715241 22.1399 1.59592V20.6835Z" fill="white"/>
<path fill-rule="evenodd" clip-rule="evenodd" d="M11.9069 10.0136C12.3506 9.32848 13.1435 8.35254 14.9191 8.35254C17.1191 8.35254 18.7694 9.79054 18.7711 12.8788V18.6483H18.7702H15.4263V13.2656C15.4263 11.912 14.9425 10.9896 13.7326 10.9896C12.8085 10.9896 12.2587 11.6121 12.0164 12.2137C11.9261 12.4284 11.9069 12.7301 11.9069 13.03V18.6508H8.56299C8.56299 18.6508 8.60644 9.53235 8.56299 8.58984H11.9069V10.0136ZM11.8836 10.0492H11.9045V10.0149C11.9019 10.0222 11.897 10.0291 11.8921 10.0361C11.8891 10.0404 11.8861 10.0447 11.8836 10.0492Z" fill="#3E76C9"/>
<path d="M3.36621 8.58984H6.71013V18.6509H3.36621V8.58984Z" fill="#3E76CA"/>
<path d="M5.06066 3.73926C3.91761 3.73926 3.16895 4.48959 3.16895 5.47723C3.16895 6.4423 3.89505 7.2152 5.01637 7.2152H5.0381C6.20454 7.2152 6.93065 6.4423 6.93065 5.47723C6.90809 4.49043 6.20538 3.73926 5.06066 3.73926Z" fill="#3E76C9"/>
</svg>
