<svg width="150" height="51" viewBox="0 0 150 51" fill="none" xmlns="http://www.w3.org/2000/svg">
<rect x="0.577637" y="0.60791" width="149.388" height="49.7962" rx="5" fill="white"/>
<path d="M89.249 25.1638V21.7578H91.667C92.369 21.7578 92.8804 21.9051 93.201 22.1998C93.5304 22.4858 93.695 22.9061 93.695 23.4608C93.695 24.0154 93.5304 24.4401 93.201 24.7348C92.8804 25.0294 92.369 25.1724 91.667 25.1638H89.249ZM88.014 20.7178V29.9998H89.249V26.2038H92.083C93.019 26.2124 93.7254 25.9741 94.202 25.4888C94.6874 25.0034 94.93 24.3274 94.93 23.4608C94.93 22.5941 94.6874 21.9224 94.202 21.4458C93.7254 20.9604 93.019 20.7178 92.083 20.7178H88.014Z" fill="#E40625"/>
<path d="M101.501 29.9738C101.31 30.0864 101.046 30.1428 100.708 30.1428C100.422 30.1428 100.192 30.0648 100.019 29.9088C99.8541 29.7441 99.7717 29.4798 99.7717 29.1158C99.4684 29.4798 99.1131 29.7441 98.7057 29.9088C98.3071 30.0648 97.8737 30.1428 97.4057 30.1428C97.1024 30.1428 96.8121 30.1081 96.5347 30.0388C96.2661 29.9694 96.0321 29.8611 95.8327 29.7138C95.6334 29.5664 95.4731 29.3758 95.3517 29.1418C95.2391 28.8991 95.1827 28.6088 95.1827 28.2708C95.1827 27.8894 95.2477 27.5774 95.3777 27.3348C95.5077 27.0921 95.6767 26.8971 95.8847 26.7498C96.1014 26.5938 96.3441 26.4768 96.6127 26.3988C96.8901 26.3208 97.1717 26.2558 97.4577 26.2038C97.7611 26.1431 98.0471 26.0998 98.3157 26.0738C98.5931 26.0391 98.8357 25.9958 99.0437 25.9438C99.2517 25.8831 99.4164 25.8008 99.5377 25.6968C99.6591 25.5841 99.7197 25.4238 99.7197 25.2158C99.7197 24.9731 99.6721 24.7781 99.5767 24.6308C99.4901 24.4834 99.3731 24.3708 99.2257 24.2928C99.0871 24.2148 98.9267 24.1628 98.7447 24.1368C98.5714 24.1108 98.3981 24.0978 98.2247 24.0978C97.7567 24.0978 97.3667 24.1888 97.0547 24.3708C96.7427 24.5441 96.5737 24.8778 96.5477 25.3718H95.4427C95.4601 24.9558 95.5467 24.6048 95.7027 24.3188C95.8587 24.0328 96.0667 23.8031 96.3267 23.6298C96.5867 23.4478 96.8814 23.3178 97.2107 23.2398C97.5487 23.1618 97.9084 23.1228 98.2897 23.1228C98.5931 23.1228 98.8921 23.1444 99.1867 23.1878C99.4901 23.2311 99.7631 23.3221 100.006 23.4608C100.248 23.5908 100.443 23.7771 100.591 24.0198C100.738 24.2624 100.812 24.5788 100.812 24.9688V28.4268C100.812 28.6868 100.825 28.8774 100.851 28.9988C100.885 29.1201 100.989 29.1808 101.163 29.1808C101.258 29.1808 101.371 29.1591 101.501 29.1158V29.9738ZM99.7067 26.5288C99.5681 26.6328 99.3861 26.7108 99.1607 26.7628C98.9354 26.8061 98.6971 26.8451 98.4457 26.8798C98.2031 26.9058 97.9561 26.9404 97.7047 26.9838C97.4534 27.0184 97.2281 27.0791 97.0287 27.1658C96.8294 27.2524 96.6647 27.3781 96.5347 27.5428C96.4134 27.6988 96.3527 27.9154 96.3527 28.1928C96.3527 28.3748 96.3874 28.5308 96.4567 28.6608C96.5347 28.7821 96.6301 28.8818 96.7427 28.9598C96.8641 29.0378 97.0027 29.0941 97.1587 29.1288C97.3147 29.1634 97.4794 29.1808 97.6527 29.1808C98.0167 29.1808 98.3287 29.1331 98.5887 29.0378C98.8487 28.9338 99.0611 28.8081 99.2257 28.6608C99.3904 28.5048 99.5117 28.3401 99.5897 28.1668C99.6677 27.9848 99.7067 27.8158 99.7067 27.6598V26.5288Z" fill="#E40625"/>
<path d="M101.775 23.2788V29.9998H102.88V27.0098C102.88 26.5764 102.923 26.1951 103.01 25.8658C103.097 25.5278 103.235 25.2418 103.426 25.0078C103.617 24.7738 103.868 24.5961 104.18 24.4748C104.492 24.3534 104.869 24.2928 105.311 24.2928V23.1228C104.713 23.1054 104.219 23.2268 103.829 23.4868C103.439 23.7468 103.11 24.1498 102.841 24.6958H102.815V23.2788H101.775Z" fill="#E40625"/>
<path d="M108.782 23.2788V21.2638H107.677V23.2788H106.533V24.2538H107.677V28.5308C107.677 28.8428 107.708 29.0941 107.768 29.2848C107.829 29.4754 107.92 29.6228 108.041 29.7268C108.171 29.8308 108.336 29.9044 108.535 29.9478C108.743 29.9824 108.99 29.9998 109.276 29.9998H110.121V29.0248H109.614C109.441 29.0248 109.298 29.0204 109.185 29.0118C109.081 28.9944 108.999 28.9641 108.938 28.9208C108.878 28.8774 108.834 28.8168 108.808 28.7388C108.791 28.6608 108.782 28.5568 108.782 28.4268V24.2538H110.121V23.2788H108.782Z" fill="#E40625"/>
<path d="M110.894 23.2788V29.9998H111.999V26.2038C111.999 25.9004 112.038 25.6231 112.116 25.3718C112.203 25.1118 112.328 24.8864 112.493 24.6958C112.658 24.5051 112.861 24.3578 113.104 24.2538C113.355 24.1498 113.65 24.0978 113.988 24.0978C114.413 24.0978 114.746 24.2191 114.989 24.4618C115.232 24.7044 115.353 25.0338 115.353 25.4498V29.9998H116.458V25.5798C116.458 25.2158 116.419 24.8864 116.341 24.5918C116.271 24.2884 116.146 24.0284 115.964 23.8118C115.782 23.5951 115.544 23.4261 115.249 23.3048C114.954 23.1834 114.586 23.1228 114.144 23.1228C113.147 23.1228 112.419 23.5301 111.96 24.3448H111.934V23.2788H110.894Z" fill="#E40625"/>
<path d="M122.589 25.9958H118.728C118.746 25.7358 118.802 25.4931 118.897 25.2678C118.993 25.0338 119.123 24.8301 119.287 24.6568C119.452 24.4834 119.647 24.3491 119.872 24.2538C120.106 24.1498 120.366 24.0978 120.652 24.0978C120.93 24.0978 121.181 24.1498 121.406 24.2538C121.64 24.3491 121.84 24.4834 122.004 24.6568C122.178 24.8214 122.312 25.0208 122.407 25.2548C122.511 25.4888 122.572 25.7358 122.589 25.9958ZM123.655 27.8678H122.563C122.468 28.3098 122.269 28.6391 121.965 28.8558C121.671 29.0724 121.289 29.1808 120.821 29.1808C120.457 29.1808 120.141 29.1201 119.872 28.9988C119.604 28.8774 119.383 28.7171 119.209 28.5178C119.036 28.3098 118.91 28.0758 118.832 27.8158C118.754 27.5471 118.72 27.2654 118.728 26.9708H123.759C123.777 26.5634 123.738 26.1344 123.642 25.6838C123.556 25.2331 123.391 24.8171 123.148 24.4358C122.914 24.0544 122.598 23.7424 122.199 23.4998C121.809 23.2484 121.315 23.1228 120.717 23.1228C120.258 23.1228 119.833 23.2094 119.443 23.3828C119.062 23.5561 118.728 23.7988 118.442 24.1108C118.165 24.4228 117.948 24.7911 117.792 25.2158C117.636 25.6404 117.558 26.1084 117.558 26.6198C117.576 27.1311 117.649 27.6034 117.779 28.0368C117.918 28.4701 118.122 28.8428 118.39 29.1548C118.659 29.4668 118.988 29.7094 119.378 29.8828C119.777 30.0561 120.245 30.1428 120.782 30.1428C121.545 30.1428 122.178 29.9521 122.68 29.5708C123.183 29.1894 123.508 28.6218 123.655 27.8678Z" fill="#E40625"/>
<path d="M124.931 23.2788V29.9998H126.036V27.0098C126.036 26.5764 126.079 26.1951 126.166 25.8658C126.253 25.5278 126.391 25.2418 126.582 25.0078C126.773 24.7738 127.024 24.5961 127.336 24.4748C127.648 24.3534 128.025 24.2928 128.467 24.2928V23.1228C127.869 23.1054 127.375 23.2268 126.985 23.4868C126.595 23.7468 126.266 24.1498 125.997 24.6958H125.971V23.2788H124.931Z" fill="#E40625"/>
<path d="M129.91 27.8808H128.805C128.822 28.2968 128.909 28.6521 129.065 28.9468C129.221 29.2328 129.429 29.4668 129.689 29.6488C129.949 29.8221 130.248 29.9478 130.586 30.0258C130.924 30.1038 131.279 30.1428 131.652 30.1428C131.99 30.1428 132.328 30.1081 132.666 30.0388C133.013 29.9781 133.32 29.8654 133.589 29.7008C133.866 29.5361 134.087 29.3194 134.252 29.0508C134.425 28.7821 134.512 28.4441 134.512 28.0368C134.512 27.7161 134.447 27.4474 134.317 27.2308C134.196 27.0141 134.031 26.8364 133.823 26.6978C133.624 26.5504 133.39 26.4334 133.121 26.3468C132.861 26.2601 132.592 26.1864 132.315 26.1258C132.055 26.0651 131.795 26.0088 131.535 25.9568C131.275 25.8961 131.041 25.8268 130.833 25.7488C130.625 25.6621 130.452 25.5581 130.313 25.4368C130.183 25.3068 130.118 25.1464 130.118 24.9558C130.118 24.7824 130.161 24.6438 130.248 24.5398C130.335 24.4271 130.447 24.3404 130.586 24.2798C130.725 24.2104 130.876 24.1628 131.041 24.1368C131.214 24.1108 131.383 24.0978 131.548 24.0978C131.73 24.0978 131.908 24.1194 132.081 24.1628C132.263 24.1974 132.428 24.2581 132.575 24.3448C132.722 24.4314 132.844 24.5484 132.939 24.6958C133.034 24.8344 133.091 25.0121 133.108 25.2288H134.213C134.187 24.8214 134.1 24.4834 133.953 24.2148C133.806 23.9374 133.606 23.7208 133.355 23.5648C133.112 23.4001 132.831 23.2874 132.51 23.2268C132.189 23.1574 131.838 23.1228 131.457 23.1228C131.162 23.1228 130.863 23.1618 130.56 23.2398C130.265 23.3091 129.997 23.4218 129.754 23.5778C129.52 23.7251 129.325 23.9201 129.169 24.1628C129.022 24.4054 128.948 24.6958 128.948 25.0338C128.948 25.4671 129.056 25.8051 129.273 26.0478C129.49 26.2904 129.758 26.4811 130.079 26.6198C130.408 26.7498 130.764 26.8538 131.145 26.9318C131.526 27.0011 131.877 27.0834 132.198 27.1788C132.527 27.2654 132.8 27.3824 133.017 27.5298C133.234 27.6771 133.342 27.8938 133.342 28.1798C133.342 28.3878 133.29 28.5611 133.186 28.6998C133.082 28.8298 132.948 28.9294 132.783 28.9988C132.627 29.0681 132.454 29.1158 132.263 29.1418C132.072 29.1678 131.89 29.1808 131.717 29.1808C131.492 29.1808 131.271 29.1591 131.054 29.1158C130.846 29.0724 130.655 29.0031 130.482 28.9078C130.317 28.8038 130.183 28.6694 130.079 28.5048C129.975 28.3314 129.919 28.1234 129.91 27.8808Z" fill="#E40625"/>
<path d="M40.7407 22.9561H43.0251V30.2458H40.7407V22.9561Z" fill="#E40625"/>
<path d="M43.5289 22.956H45.7461V23.9638H45.8133C46.3844 23.1743 47.0226 22.7544 48.0304 22.7544C49.0382 22.7544 50.5332 23.8966 50.5332 25.4755V30.1953H48.2488V25.9794C48.2488 25.1899 47.8961 24.686 47.1066 24.686C46.3172 24.686 45.8133 25.3243 45.8133 26.1809V30.1785H43.5289V22.956Z" fill="#E40625"/>
<path d="M41.8829 22.3851C42.6387 22.3851 43.2434 21.7804 43.2434 21.0246C43.2434 20.2687 42.6387 19.6641 41.8829 19.6641C41.127 19.6641 40.5223 20.2687 40.5223 21.0246C40.5223 21.7804 41.1438 22.3851 41.8829 22.3851Z" fill="#E40625"/>
<path d="M66.8091 22.8892H66.5908C65.7341 22.8892 65.0959 23.2419 64.592 24.0985H64.5248V22.9563H62.3076V30.2461H64.592V26.954C64.592 25.4591 65.4486 24.7368 66.7419 24.888L66.8091 22.8892Z" fill="#E40625"/>
<path d="M78.0798 25.677C77.1559 25.5426 76.3665 25.4587 76.3665 24.8876C76.3665 24.3165 76.8032 24.2493 77.3743 24.2493C77.9454 24.2493 78.4493 24.4677 78.5165 25.1059H80.6665C80.5321 23.6782 79.4571 22.7544 77.3743 22.7544C75.3083 22.7544 74.2333 23.5438 74.2333 25.1059C74.2333 26.6848 75.5939 27.1719 76.8032 27.3903C78.0126 27.6086 78.6677 27.6086 78.6677 28.2469C78.6677 28.8852 78.2309 28.9692 77.5255 28.9692C76.8032 28.9692 76.3833 28.6836 76.2321 28.1125H74.0822C74.2165 29.6074 75.5771 30.5481 77.5759 30.5481C79.5747 30.5481 80.868 29.7586 80.868 28.1125C80.868 26.4665 79.3731 25.8954 78.0798 25.677Z" fill="#E40625"/>
<path d="M70.5212 28.7508C69.5974 28.7508 69.0263 28.1125 68.8751 27.1719H74.0821C74.0821 25.677 73.6454 24.4509 72.7888 23.6782C71.9321 22.8888 71.361 22.7544 70.286 22.7544C68.0689 22.7544 66.574 24.4005 66.574 26.6176C66.574 28.8348 68.0689 30.4809 70.4372 30.4809C71.361 30.4809 72.0833 30.2625 72.7216 29.8426C73.3262 29.4395 73.763 28.8348 73.9309 28.1293H71.6466C71.5122 28.5325 71.0923 28.7508 70.5212 28.7508ZM70.37 24.3837C71.1595 24.3837 71.6634 24.9548 71.7306 25.8114H68.8751C69.0095 24.9548 69.4462 24.3837 70.37 24.3837Z" fill="#E40625"/>
<path d="M84.9328 28.5327H84.5801C84.0762 28.5327 83.7907 28.3984 83.7907 27.8105V24.3839H85V22.9562H83.7907V20.6719H81.5063V22.9562H80.7841V24.3839H81.5063V28.3144C81.5063 29.8933 82.4301 30.3132 83.7907 30.3132H84.9328V28.5327Z" fill="#E40625"/>
<path d="M54.6652 28.5327H54.3797C53.8758 28.5327 53.5902 28.3984 53.5902 27.8105V24.3839H54.6652V22.9562H53.5902V20.6719H51.3059V22.9562H50.5836V24.3839H51.3731V28.3144C51.3731 29.8933 52.2969 30.3132 53.6574 30.3132H54.7324L54.6652 28.5327Z" fill="#E40625"/>
<path d="M54.598 26.601C54.598 24.4511 56.0929 22.7378 58.3101 22.7378C59.3179 22.7378 60.1745 23.0905 60.8128 23.6616C61.4511 24.2327 62.1061 25.7276 62.1061 27.1553H56.8152C56.9664 28.1631 57.5374 28.7342 58.4613 28.7342C59.3851 28.7342 59.4691 28.4487 59.6706 28.012H61.955C61.7702 28.7174 61.3503 29.3221 60.7456 29.7252C60.1073 30.1619 59.3851 30.3635 58.4613 30.3635C56.0257 30.4643 54.598 28.751 54.598 26.601ZM59.7378 25.8116C59.6706 24.955 59.0995 24.3839 58.3773 24.3839C57.655 24.3839 57.0167 24.955 56.8824 25.8116H59.7378Z" fill="#E40625"/>
<path d="M32.6111 20.1006H36.6087C37.8181 20.1006 38.7587 20.4533 39.397 21.0244C40.0352 21.5955 40.4048 22.5193 40.4048 23.5271C40.4048 25.4587 39.0442 26.8193 36.9782 26.8193H34.9794V30.1786H32.6279V20.1006H32.6111ZM36.6759 24.8876C37.5997 24.8876 38.1036 24.3166 38.1036 23.5271C38.1036 22.7377 37.5997 22.2338 36.6759 22.2338H34.9626V24.8708H36.6759V24.8876Z" fill="#E40625"/>
<path d="M20.8534 34.4284C25.7328 34.4284 29.6884 30.4728 29.6884 25.5934C29.6884 20.7139 25.7328 16.7583 20.8534 16.7583C15.9739 16.7583 12.0183 20.7139 12.0183 25.5934C12.0183 30.4728 15.9739 34.4284 20.8534 34.4284Z" fill="white"/>
<path d="M20.9206 16.7581C18.8378 16.7413 16.8222 17.4636 15.2265 18.7905C13.6308 20.1174 12.539 21.9483 12.1527 23.9807C11.7664 26.0131 12.1191 28.1295 13.1437 29.9267C14.1683 31.7408 15.7808 33.1181 17.7292 33.8571C17.662 33.1349 17.578 32.1103 17.7292 31.3208L18.7538 26.9033C18.569 26.5002 18.4682 26.0467 18.4682 25.5932C18.4682 24.367 19.1905 23.4264 20.0639 23.4264C20.9374 23.4264 21.1557 24.0143 21.1557 24.6525C21.1557 25.3076 20.6518 26.5338 20.4334 27.6256C20.2151 28.7173 20.8702 29.2212 21.7436 29.2212C22.617 29.2212 24.515 27.5584 24.515 25.1564C24.515 22.7545 22.9865 21.5284 20.803 21.5284C18.6194 21.5284 16.8726 23.4936 16.8726 25.442C16.8726 26.1642 17.1581 27.0377 17.5276 27.4744C17.5612 27.508 17.578 27.5416 17.5948 27.5752C17.6116 27.6088 17.6116 27.6592 17.6116 27.6928L17.3932 28.7006C17.3261 28.8517 17.2421 28.9189 17.1077 28.8517C16.0159 28.3478 15.2937 26.7521 15.2937 25.442C15.2937 22.6873 17.3261 20.0838 21.1893 20.0838C25.0525 20.0838 26.6482 22.2506 26.6482 25.1564C26.6482 28.0623 24.683 30.6658 22.0627 30.6658C21.1893 30.6658 20.3159 30.2291 20.0303 29.658L19.3921 31.7576C19.1737 32.547 18.6698 33.5044 18.3003 34.0755C19.5096 34.4282 20.803 34.529 22.0459 34.3442C23.3057 34.1763 24.4983 33.7228 25.5732 33.0509C26.6482 32.379 27.5553 31.472 28.2439 30.4138C28.9326 29.3556 29.3861 28.1631 29.5877 26.9033C29.7724 25.6603 29.6884 24.3838 29.3525 23.1576C28.9998 21.9483 28.3951 20.8229 27.572 19.8487C26.749 18.8913 25.7244 18.1018 24.5822 17.5643C23.4401 17.0436 22.1803 16.7581 20.9206 16.7581Z" fill="#E40625"/>
</svg>
