<svg width="24" height="24" viewBox="0 0 24 24" fill="none" xmlns="http://www.w3.org/2000/svg">
<path d="M23.0874 9.17428V18.6257C23.0874 21.0875 21.0859 23.0882 18.6257 23.0882H4.46164C2.00066 23.0882 0 21.0875 0 18.6257V9.17428V4.46164C0 2.00067 2.00066 0 4.46164 0H18.6249C21.0859 0 23.0874 2.00067 23.0874 4.46164V9.17428Z" fill="white"/>
<path d="M11.5428 15.6064C13.7822 15.6064 15.6079 13.784 15.6079 11.543C15.6079 10.6583 15.3185 9.84154 14.8394 9.17438C14.1011 8.15074 12.9008 7.47949 11.5452 7.47949C10.1888 7.47949 8.98943 8.14992 8.2495 9.17356C7.76875 9.84072 7.48178 10.6575 7.48096 11.5421C7.47851 13.7832 9.30257 15.6064 11.5428 15.6064Z" fill="#3E76C9"/>
<path d="M20.4163 6.57221V3.16609V2.65918L19.9069 2.66081L16.5024 2.67144L16.5155 6.58529L20.4163 6.57221Z" fill="#3E76C9"/>
<path d="M17.8581 11.5424C17.8581 15.0229 15.026 17.8567 11.5438 17.8567C8.06167 17.8567 5.23032 15.0229 5.23032 11.5424C5.23032 10.7052 5.39711 9.90476 5.69472 9.17383H2.24854V18.6253C2.24854 19.8468 3.24028 20.8361 4.46096 20.8361H18.6242C19.8433 20.8361 20.8367 19.8468 20.8367 18.6253V9.17383H17.3888C17.6889 9.90476 17.8581 10.7052 17.8581 11.5424Z" fill="#3E75C8"/>
</svg>
