<?xml version="1.0" encoding="UTF-8"?> <svg xmlns="http://www.w3.org/2000/svg" xmlns:xlink="http://www.w3.org/1999/xlink" width="101px" height="100px" viewBox="0 0 101 100" version="1.1"><title>icn_instagram</title><g id="Social-Media-Pages" stroke="none" stroke-width="1" fill="none" fill-rule="evenodd"><g id="Social---Facebook-Ads" transform="translate(-181.000000, -3563.000000)" fill="#427FE0" fill-rule="nonzero"><g id="icn_instagram" transform="translate(181.000000, 3563.000000)"><path d="M99.7947693,29.3945312 C99.5605469,24.0821838 98.701477,20.4299926 97.4708557,17.2653199 C96.2013244,13.9060975 94.2481994,10.89859 91.6893006,8.3984375 C89.189148,5.859375 86.1618043,3.88641367 82.8414918,2.63671875 C79.6585082,1.40609746 76.0253906,0.547027539 70.7130432,0.312805078 C65.361023,0.0587462891 63.6619568,0 50.0877381,0 C36.5135193,0 34.8144531,0.0587462891 29.4822693,0.29296875 C24.1699219,0.527191211 20.5177307,1.38702383 17.3538207,2.61688242 C13.9938355,3.88641367 10.9863281,5.83953867 8.48617559,8.3984375 C5.94711309,10.89859 3.97491445,13.9259338 2.72445684,17.2462463 C1.49383555,20.4299926 0.634765625,24.0623475 0.400543164,29.3746949 C0.146484375,34.726715 0.0877380859,36.4257812 0.0877380859,50 C0.0877380859,63.5742188 0.146484375,65.273285 0.380706836,70.6054688 C0.614929297,75.9178162 1.47476191,79.5700074 2.7053832,82.7346801 C3.97491445,86.0939025 5.94711309,89.10141 8.48617559,91.6015625 C10.9863281,94.140625 14.0136719,96.1135863 17.3339844,97.3632812 C20.5177307,98.5939025 24.1500855,99.4529725 29.4631957,99.6871949 C34.7946168,99.9221801 36.4944457,99.9801637 50.0686645,99.9801637 C63.6428832,99.9801637 65.3419494,99.9221801 70.6741332,99.6871949 C75.9864807,99.4529725 79.6386719,98.5939025 82.8025818,97.3632812 C89.5217895,94.7654725 94.8341369,89.453125 97.4319457,82.7346801 C98.6618043,79.5509338 99.5216369,75.9178162 99.7558594,70.6054688 C99.9900818,65.273285 100.048828,63.5742188 100.048828,50 C100.048828,36.4257812 100.028992,34.726715 99.7947693,29.3945312 Z M90.7913207,70.2148438 C90.5761719,75.0976562 89.7560119,77.734375 89.0724182,79.4921875 C87.3924256,83.8478088 83.9355469,87.3046875 79.5799256,88.9846801 C77.8221131,89.6682738 75.1663207,90.4884338 70.3025818,90.7028199 C65.0291443,90.9378051 63.4475707,90.9957887 50.1075744,90.9957887 C36.7675781,90.9957887 35.1661682,90.9378051 29.9118043,90.7028199 C25.0289918,90.4884338 22.392273,89.6682738 20.6344605,88.9846801 C18.4669494,88.1835938 16.4939881,86.9140625 14.8925781,85.2539062 C13.2324219,83.63266 11.9628906,81.679535 11.1618043,79.5120238 C10.4782105,77.7542113 9.65805059,75.0976562 9.44366445,70.2346801 C9.2086793,64.9612426 9.1506957,63.3789062 9.1506957,50.03891 C9.1506957,36.6989137 9.2086793,35.0975037 9.44366445,29.8439025 C9.65805059,24.96109 10.4782105,22.3243713 11.1618043,20.5665588 C11.9628906,18.398285 13.2324219,16.4260863 14.9124145,14.8239137 C16.532898,13.1637574 18.486023,11.8942262 20.6542969,11.0939025 C22.4121094,10.4103088 25.0686645,9.59014883 29.9316406,9.375 C35.2050781,9.14077754 36.7874145,9.08203125 50.126648,9.08203125 C63.4864807,9.08203125 65.0680543,9.14077754 70.3224182,9.375 C75.2052307,9.59014883 77.8419494,10.4103088 79.5997619,11.0939025 C81.767273,11.8942262 83.7402344,13.1637574 85.3416443,14.8239137 C87.0018006,16.44516 88.2713318,18.398285 89.0724182,20.5665588 C89.7560119,22.3243713 90.5761719,24.9801637 90.7913207,29.8439025 C91.0255432,35.11734 91.0842895,36.6989137 91.0842895,50.03891 C91.0842895,63.3789062 91.0255432,64.9414062 90.7913207,70.2148438 Z" id="Shape"></path><path d="M50.0877381,24.3164062 C35.9085082,24.3164062 24.4041443,35.8200074 24.4041443,50 C24.4041443,64.1799926 35.9085082,75.6835938 50.0877381,75.6835938 C64.2677307,75.6835938 75.7713318,64.1799926 75.7713318,50 C75.7713318,35.8200074 64.2677307,24.3164062 50.0877381,24.3164062 Z M50.0877381,66.6603088 C40.888977,66.6603088 33.4274293,59.1995238 33.4274293,50 C33.4274293,40.8004762 40.888977,33.3396912 50.0877381,33.3396912 C59.2872619,33.3396912 66.7480469,40.8004762 66.7480469,50 C66.7480469,59.1995238 59.2872619,66.6603088 50.0877381,66.6603088 L50.0877381,66.6603088 Z" id="Shape"></path><path d="M82.7835082,23.3009338 C82.7835082,26.612091 80.0987244,29.296875 76.7868043,29.296875 C73.4756469,29.296875 70.7908631,26.612091 70.7908631,23.3009338 C70.7908631,19.9890137 73.4756469,17.3049926 76.7868043,17.3049926 C80.0987244,17.3049926 82.7835082,19.9890137 82.7835082,23.3009338 L82.7835082,23.3009338 Z" id="Path"></path></g></g></g></svg> 