<svg width="151" height="50" viewBox="0 0 151 50" fill="none" xmlns="http://www.w3.org/2000/svg">
<rect width="150.019" height="49.1658" rx="5" fill="white"/>
<mask id="mask0_830_27555" style="mask-type:alpha" maskUnits="userSpaceOnUse" x="29" y="3" width="92" height="44">
<rect x="29.9496" y="3.07178" width="90.426" height="43.1101" fill="#C4C4C4"/>
</mask>
<g mask="url(#mask0_830_27555)">
<path d="M60.7189 35.3807L61.2921 33.9694H63.4144L63.9953 35.3807H64.9092L62.7405 30.189H61.9815L59.7972 35.3807H60.7189ZM63.244 33.3625H61.447L62.361 31.1323L63.244 33.3625ZM67.1787 37.0114C67.4833 37.0114 67.7673 36.9724 68.0307 36.8944C68.294 36.8164 68.5225 36.703 68.7161 36.5544C68.9098 36.4057 69.0608 36.2241 69.1692 36.0096C69.2777 35.7951 69.3319 35.5489 69.3319 35.271V31.5564H68.5806V32.2803C68.4205 32.0463 68.2178 31.8562 67.9726 31.7099C67.7273 31.5637 67.442 31.4906 67.1167 31.4906C66.8379 31.4906 66.5836 31.543 66.3538 31.6478C66.124 31.7526 65.9265 31.894 65.7612 32.0719C65.596 32.2498 65.4669 32.4594 65.374 32.7008C65.281 32.9421 65.2346 33.1992 65.2346 33.4722C65.2346 33.7306 65.2797 33.9768 65.3701 34.2108C65.4605 34.4447 65.587 34.6519 65.7496 34.8323C65.9123 35.0127 66.1072 35.1553 66.3344 35.2601C66.5616 35.3649 66.812 35.4173 67.0857 35.4173C67.3646 35.4173 67.6305 35.3539 67.8835 35.2272C68.1365 35.1004 68.3353 34.92 68.4799 34.6861V35.271C68.4799 35.466 68.445 35.6342 68.3753 35.7756C68.3056 35.917 68.2114 36.034 68.0926 36.1266C67.9739 36.2192 67.8357 36.2875 67.6782 36.3313C67.5208 36.3752 67.3542 36.3971 67.1787 36.3971C66.8998 36.3971 66.6378 36.3435 66.3925 36.2363C66.1472 36.129 65.9471 35.973 65.7922 35.7683L65.312 36.1924C65.5134 36.4508 65.7625 36.6519 66.0594 36.7957C66.3564 36.9395 66.7294 37.0114 67.1787 37.0114ZM67.3646 34.7665C67.1838 34.7665 67.0173 34.7324 66.865 34.6641C66.7126 34.5959 66.5797 34.5045 66.4661 34.3899C66.3525 34.2753 66.2634 34.1413 66.1989 33.9877C66.1343 33.8342 66.102 33.6696 66.102 33.4941C66.102 33.3284 66.1304 33.1675 66.1872 33.0115C66.244 32.8555 66.3241 32.7154 66.4274 32.5911C66.5306 32.4668 66.6558 32.3668 66.803 32.2913C66.9502 32.2157 67.1167 32.1779 67.3026 32.1779C67.4214 32.1779 67.5401 32.1986 67.6589 32.2401C67.7776 32.2815 67.89 32.3388 67.9958 32.4119C68.1017 32.485 68.1959 32.5716 68.2785 32.6715C68.3611 32.7714 68.4283 32.8823 68.4799 33.0042V34.006C68.4489 34.1084 68.3973 34.2047 68.325 34.2948C68.2527 34.385 68.1662 34.4655 68.0655 34.5361C67.9648 34.6068 67.8551 34.6629 67.7363 34.7043C67.6176 34.7458 67.4936 34.7665 67.3646 34.7665ZM72.19 35.4538C72.6186 35.4538 72.9942 35.3624 73.3169 35.1796C73.6397 34.9968 73.8707 34.7616 74.0102 34.474L73.2821 34.2766C73.2408 34.3643 73.184 34.4447 73.1117 34.5179C73.0394 34.591 72.9568 34.6531 72.8638 34.7043C72.7709 34.7555 72.6689 34.7945 72.5579 34.8213C72.4469 34.8481 72.3346 34.8615 72.221 34.8615C72.066 34.8615 71.9176 34.8347 71.7756 34.7811C71.6336 34.7275 71.5071 34.6507 71.3961 34.5508C71.285 34.4508 71.1947 34.3326 71.125 34.1961C71.0553 34.0596 71.0127 33.9061 70.9972 33.7354H74.2425C74.2477 33.7013 74.2528 33.6587 74.258 33.6075C74.2632 33.5563 74.2658 33.5015 74.2658 33.443C74.2658 33.1846 74.218 32.9372 74.1225 32.7008C74.0269 32.4643 73.8888 32.2571 73.7081 32.0792C73.5274 31.9013 73.3092 31.7587 73.0536 31.6514C72.798 31.5442 72.5127 31.4906 72.1977 31.4906C71.8776 31.4906 71.5884 31.543 71.3302 31.6478C71.072 31.7526 70.8513 31.8964 70.668 32.0792C70.4847 32.262 70.3427 32.4741 70.242 32.7154C70.1413 32.9567 70.091 33.2114 70.091 33.4795C70.091 33.7476 70.1413 34.0011 70.242 34.24C70.3427 34.4789 70.4847 34.6885 70.668 34.8689C70.8513 35.0492 71.072 35.1918 71.3302 35.2966C71.5884 35.4014 71.875 35.4538 72.19 35.4538ZM73.4215 33.1797H70.9739C70.9894 33.0188 71.0307 32.8702 71.0979 32.7337C71.165 32.5972 71.2528 32.4814 71.3612 32.3863C71.4696 32.2913 71.5949 32.2169 71.7369 32.1633C71.8789 32.1097 72.0299 32.0829 72.19 32.0829C72.35 32.0829 72.5024 32.1097 72.647 32.1633C72.7915 32.2169 72.918 32.2913 73.0265 32.3863C73.1349 32.4814 73.224 32.5972 73.2937 32.7337C73.3634 32.8702 73.406 33.0188 73.4215 33.1797ZM75.8148 35.3807V33.1066C75.8613 32.975 75.9272 32.8543 76.0124 32.7446C76.0976 32.6349 76.1944 32.5399 76.3028 32.4594C76.4112 32.379 76.5274 32.3169 76.6514 32.273C76.7753 32.2291 76.8992 32.2072 77.0231 32.2072C77.2607 32.2072 77.4401 32.2888 77.5614 32.4521C77.6828 32.6154 77.7435 32.8775 77.7435 33.2382V35.3807H78.5955V33.0481C78.5955 32.8385 78.5774 32.6398 78.5412 32.4521C78.5051 32.2644 78.4418 32.0987 78.3515 31.9549C78.2611 31.8111 78.1385 31.6977 77.9836 31.6149C77.8287 31.532 77.6299 31.4906 77.3872 31.4906C77.0309 31.4906 76.7056 31.5649 76.4112 31.7136C76.1169 31.8623 75.8923 32.0658 75.7374 32.3242V31.5564H74.9628V35.3807H75.8148ZM81.4226 35.4538C81.8511 35.4538 82.2229 35.3624 82.5379 35.1796C82.8529 34.9968 83.0775 34.7616 83.2118 34.474L82.3752 34.24C82.3443 34.3131 82.2965 34.3814 82.232 34.4447C82.1674 34.5081 82.0925 34.5642 82.0073 34.6129C81.9221 34.6617 81.8279 34.6995 81.7246 34.7263C81.6214 34.7531 81.5181 34.7665 81.4148 34.7665C81.2496 34.7665 81.0934 34.7336 80.9462 34.6678C80.799 34.602 80.67 34.5106 80.5589 34.3936C80.4479 34.2766 80.3601 34.1388 80.2956 33.9804C80.231 33.822 80.1988 33.6501 80.1988 33.4649C80.1988 33.2748 80.2298 33.1017 80.2917 32.9457C80.3537 32.7897 80.4389 32.6544 80.5473 32.5399C80.6558 32.4253 80.7836 32.3364 80.9307 32.273C81.0779 32.2096 81.2367 32.1779 81.4071 32.1779C81.6084 32.1779 81.7917 32.223 81.957 32.3132C82.1222 32.4034 82.2539 32.5289 82.352 32.6898L83.1808 32.4412C83.031 32.1535 82.8051 31.9232 82.503 31.7501C82.201 31.5771 81.8408 31.4906 81.4226 31.4906C81.1024 31.4906 80.8132 31.543 80.5551 31.6478C80.2969 31.7526 80.0761 31.8952 79.8928 32.0755C79.7095 32.2559 79.5688 32.4655 79.4707 32.7044C79.3726 32.9433 79.3235 33.1968 79.3235 33.4649C79.3235 33.733 79.3739 33.9865 79.4746 34.2254C79.5753 34.4642 79.7173 34.6751 79.9006 34.8579C80.0839 35.0407 80.3046 35.1857 80.5628 35.293C80.821 35.4002 81.1076 35.4538 81.4226 35.4538ZM84.4743 37.0406C84.7944 37.0406 85.0565 36.9663 85.2604 36.8176C85.4644 36.6689 85.6077 36.4849 85.6903 36.2655L87.526 31.5564H86.7204L85.6051 34.6714L84.3503 31.5564H83.4751L85.1404 35.3807C85.0681 35.5757 85.0048 35.7354 84.9506 35.8597C84.8964 35.984 84.8435 36.0803 84.7918 36.1485C84.7402 36.2168 84.6898 36.2643 84.6408 36.2911C84.5917 36.3179 84.5336 36.3313 84.4665 36.3313C84.42 36.3313 84.3594 36.3265 84.2845 36.3167C84.2096 36.307 84.1335 36.2948 84.056 36.2801V36.9821C84.1386 37.0065 84.2135 37.0223 84.2806 37.0297C84.3478 37.037 84.4123 37.0406 84.4743 37.0406ZM91.0424 35.3807V33.5746H92.5295C92.7774 33.5746 93.0033 33.527 93.2073 33.432C93.4112 33.3369 93.5855 33.2102 93.7301 33.0517C93.8747 32.8933 93.987 32.7129 94.067 32.5106C94.147 32.3083 94.1871 32.0975 94.1871 31.8781C94.1871 31.6685 94.1445 31.4625 94.0593 31.2602C93.9741 31.0579 93.8566 30.8775 93.7068 30.7191C93.5571 30.5607 93.3777 30.4327 93.1685 30.3352C92.9594 30.2377 92.7309 30.189 92.4831 30.189H90.1749V35.3807H91.0424ZM92.4753 32.8507H91.0424V30.9129H92.4288C92.5424 30.9129 92.6522 30.936 92.758 30.9824C92.8639 31.0287 92.9581 31.0945 93.0407 31.1798C93.1234 31.2651 93.1879 31.3663 93.2344 31.4832C93.2808 31.6002 93.3041 31.7319 93.3041 31.8781C93.3041 32.0195 93.2834 32.1487 93.2421 32.2657C93.2008 32.3827 93.144 32.485 93.0717 32.5728C92.9994 32.6605 92.9129 32.7288 92.8122 32.7775C92.7116 32.8263 92.5992 32.8507 92.4753 32.8507ZM95.9685 35.4538C96.2732 35.4538 96.5585 35.3941 96.8244 35.2747C97.0903 35.1553 97.3136 34.9834 97.4944 34.7592L97.5176 35.0005C97.5383 35.1224 97.5938 35.2223 97.6841 35.3003C97.7745 35.3783 97.9023 35.4173 98.0675 35.4173C98.1243 35.4173 98.1824 35.4148 98.2418 35.41C98.3012 35.4051 98.3722 35.3953 98.4548 35.3807V34.6934C98.3051 34.6885 98.2302 34.6007 98.2302 34.4301V33.0481C98.2302 32.546 98.0753 32.1609 97.7655 31.8927C97.4556 31.6246 97.0219 31.4906 96.4642 31.4906C95.9014 31.4906 95.3592 31.6563 94.8377 31.9878L95.101 32.4997C95.3231 32.3583 95.5386 32.2498 95.7478 32.1743C95.9569 32.0987 96.1699 32.0609 96.3868 32.0609C96.7069 32.0609 96.9522 32.1401 97.1226 32.2986C97.293 32.457 97.3782 32.6776 97.3782 32.9603V33.2236C97.2284 33.17 97.0606 33.1273 96.8747 33.0956C96.6888 33.0639 96.5004 33.0481 96.3093 33.0481C96.0563 33.0481 95.8252 33.0773 95.6161 33.1358C95.407 33.1943 95.2262 33.2772 95.0739 33.3845C94.9216 33.4917 94.8041 33.6185 94.7215 33.7647C94.6389 33.9109 94.5976 34.0743 94.5976 34.2546C94.5976 34.4252 94.6324 34.5837 94.7021 34.7299C94.7718 34.8762 94.8674 35.0029 94.9887 35.1102C95.1101 35.2174 95.2546 35.3015 95.4225 35.3624C95.5903 35.4234 95.7723 35.4538 95.9685 35.4538ZM96.2009 34.8615C95.9685 34.8615 95.7775 34.797 95.6277 34.6678C95.478 34.5386 95.4031 34.3789 95.4031 34.1888C95.4031 33.9841 95.4999 33.8195 95.6936 33.6952C95.8872 33.5709 96.1363 33.5088 96.441 33.5088C96.5959 33.5088 96.7547 33.5234 96.9173 33.5526C97.08 33.5819 97.2336 33.6233 97.3782 33.6769V34.1815C97.3782 34.279 97.324 34.3716 97.2155 34.4594C97.1123 34.5861 96.969 34.6848 96.7857 34.7555C96.6024 34.8262 96.4074 34.8615 96.2009 34.8615ZM100.112 35.3807V33.0408C100.221 32.7922 100.403 32.6008 100.658 32.4668C100.914 32.3327 101.207 32.2608 101.537 32.251V31.5271C101.512 31.5222 101.482 31.5198 101.448 31.5198H101.321C101.062 31.5344 100.821 31.621 100.596 31.7794C100.372 31.9378 100.19 32.1487 100.05 32.4119V31.5564H99.2603V35.3807H100.112ZM103.35 35.4392C103.567 35.4392 103.771 35.4088 103.962 35.3478C104.153 35.2869 104.303 35.232 104.411 35.1833L104.233 34.5471C104.181 34.5715 104.101 34.6032 103.993 34.6422C103.884 34.6812 103.771 34.7007 103.652 34.7007C103.533 34.7007 103.434 34.6702 103.354 34.6093C103.274 34.5483 103.229 34.4496 103.218 34.3131V32.1779H104.101V31.5564H103.218V30.2986H102.366V31.5564H101.832V32.1779H102.366V34.5691C102.366 34.7251 102.392 34.8579 102.444 34.9676C102.495 35.0773 102.566 35.1662 102.657 35.2345C102.747 35.3027 102.852 35.3539 102.97 35.388C103.089 35.4222 103.216 35.4392 103.35 35.4392ZM105.852 35.3807V33.1066C105.898 32.975 105.964 32.8543 106.049 32.7446C106.134 32.6349 106.231 32.5399 106.34 32.4594C106.448 32.379 106.564 32.3169 106.688 32.273C106.812 32.2291 106.936 32.2072 107.06 32.2072C107.298 32.2072 107.477 32.2888 107.598 32.4521C107.72 32.6154 107.78 32.8775 107.78 33.2382V35.3807H108.632V33.0481C108.632 32.8385 108.614 32.6398 108.578 32.4521C108.542 32.2644 108.479 32.0987 108.388 31.9549C108.298 31.8111 108.175 31.6977 108.02 31.6149C107.866 31.532 107.667 31.4906 107.424 31.4906C107.068 31.4906 106.742 31.5649 106.448 31.7136C106.154 31.8623 105.929 32.0658 105.774 32.3242V31.5564H105V35.3807H105.852ZM111.459 35.4538C111.888 35.4538 112.264 35.3624 112.586 35.1796C112.909 34.9968 113.14 34.7616 113.28 34.474L112.552 34.2766C112.51 34.3643 112.453 34.4447 112.381 34.5179C112.309 34.591 112.226 34.6531 112.133 34.7043C112.04 34.7555 111.938 34.7945 111.827 34.8213C111.716 34.8481 111.604 34.8615 111.49 34.8615C111.336 34.8615 111.187 34.8347 111.045 34.7811C110.903 34.7275 110.777 34.6507 110.666 34.5508C110.555 34.4508 110.464 34.3326 110.394 34.1961C110.325 34.0596 110.282 33.9061 110.267 33.7354H113.512C113.517 33.7013 113.522 33.6587 113.527 33.6075C113.533 33.5563 113.535 33.5015 113.535 33.443C113.535 33.1846 113.487 32.9372 113.392 32.7008C113.296 32.4643 113.158 32.2571 112.978 32.0792C112.797 31.9013 112.579 31.7587 112.323 31.6514C112.067 31.5442 111.782 31.4906 111.467 31.4906C111.147 31.4906 110.858 31.543 110.6 31.6478C110.341 31.7526 110.121 31.8964 109.937 32.0792C109.754 32.262 109.612 32.4741 109.511 32.7154C109.411 32.9567 109.36 33.2114 109.36 33.4795C109.36 33.7476 109.411 34.0011 109.511 34.24C109.612 34.4789 109.754 34.6885 109.937 34.8689C110.121 35.0492 110.341 35.1918 110.6 35.2966C110.858 35.4014 111.144 35.4538 111.459 35.4538ZM112.691 33.1797H110.243C110.259 33.0188 110.3 32.8702 110.367 32.7337C110.434 32.5972 110.522 32.4814 110.631 32.3863C110.739 32.2913 110.864 32.2169 111.006 32.1633C111.148 32.1097 111.299 32.0829 111.459 32.0829C111.62 32.0829 111.772 32.1097 111.916 32.1633C112.061 32.2169 112.188 32.2913 112.296 32.3863C112.404 32.4814 112.493 32.5972 112.563 32.7337C112.633 32.8702 112.675 33.0188 112.691 33.1797ZM115.084 35.3807V33.0408C115.193 32.7922 115.375 32.6008 115.63 32.4668C115.886 32.3327 116.179 32.2608 116.509 32.251V31.5271C116.484 31.5222 116.454 31.5198 116.42 31.5198H116.293C116.034 31.5344 115.793 31.621 115.568 31.7794C115.344 31.9378 115.162 32.1487 115.022 32.4119V31.5564H114.232V35.3807H115.084Z" fill="black"/>
<path d="M96.4315 23.0312C96.4309 23.2553 96.4651 23.4782 96.5329 23.6924C96.5362 23.7076 96.541 23.7224 96.5471 23.7366C96.7091 24.2434 97.0344 24.6866 97.4752 25.0013C97.9161 25.316 98.4494 25.4857 98.997 25.4854V27.9996C97.7335 27.9996 96.829 28.0428 95.4479 27.2539C93.8822 26.3539 93 24.7083 93 22.9998C93 21.2372 93.9877 19.4717 95.6618 18.6209C96.8787 18.0039 97.8004 18 99 18V20.5132C98.3193 20.5132 97.6665 20.7751 97.1852 21.2415C96.7039 21.7078 96.4335 22.3403 96.4335 22.9998L96.4315 23.0312Z" fill="#69C9D0"/>
<path d="M101.566 23.0312C101.566 23.2553 101.532 23.4781 101.465 23.6924C101.465 23.7072 101.455 23.7219 101.45 23.7366C101.288 24.2433 100.963 24.6863 100.522 25.001C100.081 25.3156 99.5476 25.4854 99 25.4854V27.9996C100.263 27.9996 101.168 28.0428 102.545 27.2539C104.116 26.3539 105 24.7083 105 22.9998C105 21.2372 104.012 19.4717 102.338 18.6209C101.121 18.0039 100.199 18 99 18V20.5132C99.6806 20.5134 100.333 20.7755 100.814 21.2418C101.296 21.7081 101.566 22.3405 101.566 22.9998V23.0312Z" fill="#EE1D52"/>
<path d="M60 15H69.354L68.4895 17.6818H66.038V27.9459H63.0305V17.6818H60V15ZM84.7898 15V17.6818H87.8203V27.9459H90.8318V17.6818H93.2794L94.1438 15H84.7898ZM71.3893 18.0563C71.6775 18.056 71.9592 17.9668 72.1987 17.7997C72.4383 17.6327 72.6249 17.3953 72.7351 17.1177C72.8452 16.8401 72.8738 16.5347 72.8174 16.2402C72.761 15.9456 72.622 15.6751 72.418 15.4628C72.2141 15.2506 71.9543 15.1061 71.6716 15.0477C71.3889 14.9893 71.0959 15.0196 70.8296 15.1347C70.5634 15.2499 70.3359 15.4447 70.176 15.6946C70.016 15.9444 69.9307 16.2381 69.9309 16.5385C69.9309 16.738 69.9686 16.9355 70.042 17.1198C70.1153 17.3041 70.2227 17.4715 70.3582 17.6125C70.4936 17.7534 70.6544 17.8652 70.8313 17.9413C71.0082 18.0175 71.1978 18.0565 71.3893 18.0563ZM69.9309 27.9459H72.8835V19.1298H69.9309V27.9459ZM83.5062 17.9793H80.0525L77.0759 21.0813V15.0104H74.1422L74.1333 27.9459H77.0949V24.5755L78.0162 23.7006L80.8909 27.9417H84.0572L79.8928 21.7398L83.5062 17.9793ZM111.832 21.7419L115.442 17.9793H111.989L109.012 21.0813V15.0104H106.079L106.065 27.9459H109.028V24.5755L109.958 23.7006L112.833 27.9417H116L111.832 21.7419ZM104.239 22.7062C104.239 25.6293 101.935 28 99.0918 28C96.249 28 93.9442 25.6293 93.9442 22.7062C93.9442 19.7831 96.249 17.4123 99.0918 17.4123C101.935 17.4123 104.239 19.7841 104.239 22.7083V22.7062ZM101.617 22.7062C101.617 22.1856 101.469 21.6768 101.192 21.244C100.914 20.8112 100.52 20.4739 100.058 20.2747C99.5968 20.0755 99.089 20.0234 98.5991 20.1249C98.1092 20.2265 97.6593 20.4771 97.3061 20.8452C96.9529 21.2132 96.7124 21.6822 96.6149 22.1927C96.5175 22.7032 96.5675 23.2324 96.7586 23.7133C96.9498 24.1942 97.2735 24.6053 97.6888 24.8945C98.1041 25.1836 98.5923 25.338 99.0918 25.338C99.7612 25.338 100.403 25.061 100.877 24.5679C101.35 24.0748 101.617 23.4059 101.617 22.7083V22.7062Z" fill="black"/>
<path d="M35.5742 28.5379L35.653 28.7602C35.6429 28.7347 35.6141 28.657 35.5742 28.5379ZM38.692 23.5008C38.8304 22.3064 39.3002 21.6377 40.1856 20.9522C41.4524 20.0238 43.0349 20.5489 43.0349 20.5489V17.4334C43.4196 17.4232 43.8045 17.4469 44.185 17.5045V21.5138C44.185 21.5138 42.603 20.9887 41.3362 21.9176C40.4513 22.6026 39.9805 23.2718 39.8426 24.4661C39.8383 25.1147 39.955 25.9625 40.4926 26.6955C40.3597 26.6244 40.2242 26.5435 40.0862 26.4526C38.902 25.6235 38.6863 24.3797 38.692 23.5008ZM50.719 11.6728C49.8475 10.6772 49.5179 9.67197 49.3988 8.96582H50.4951C50.4951 8.96582 50.2765 10.8174 51.8695 12.6382L51.8916 12.6627C51.4623 12.3811 51.0685 12.0487 50.719 11.6728ZM56 14.4955V18.4242C56 18.4242 54.6011 18.3671 53.5658 18.0925C52.1203 17.7085 51.1912 17.1195 51.1912 17.1195C51.1912 17.1195 50.5494 16.6994 50.4975 16.6701V24.783C50.4975 25.2347 50.3788 26.3628 50.0171 27.3037C49.5448 28.5346 48.8161 29.3425 48.682 29.5076C48.682 29.5076 47.7957 30.5997 46.232 31.3352C44.8225 31.9986 43.585 31.9818 43.215 31.9986C43.215 31.9986 41.0758 32.0869 39.1508 30.7826C38.7346 30.4952 38.346 30.1696 37.9902 29.8101L37.9998 29.8173C39.9252 31.1216 42.064 31.0332 42.064 31.0332C42.4344 31.0164 43.6719 31.0332 45.0809 30.3698C46.6432 29.6344 47.531 28.5422 47.531 28.5422C47.6636 28.3771 48.3957 27.5692 48.866 26.3379C49.2268 25.3974 49.3464 24.2688 49.3464 23.8171V15.7052C49.3983 15.735 50.0397 16.155 50.0397 16.155C50.0397 16.155 50.9692 16.7445 52.4148 17.1281C53.4505 17.4027 54.849 17.4598 54.849 17.4598V14.3813C55.3275 14.4931 55.7353 14.5234 56 14.4955Z" fill="#EE1D52"/>
<path d="M55 14.3984V17.4662C55 17.4662 53.5979 17.4093 52.5594 17.1356C51.1101 16.7528 50.178 16.1656 50.178 16.1656C50.178 16.1656 49.535 15.7469 49.483 15.7172V23.8054C49.483 24.2557 49.364 25.3807 49.0013 26.3182C48.5279 27.5456 47.7972 28.351 47.6628 28.5156C47.6628 28.5156 46.7736 29.6043 45.2063 30.3374C43.7936 30.9987 42.5528 30.982 42.1814 30.9987C42.1814 30.9987 40.0371 31.0868 38.1065 29.7866L38.0969 29.7794C37.8931 29.5749 37.7012 29.3588 37.5223 29.1325C36.9062 28.3539 36.5286 27.4332 36.4337 27.1705C36.4336 27.1694 36.4336 27.1682 36.4337 27.1671C36.281 26.7106 35.9602 25.6143 36.0041 24.5524C36.0816 22.6789 36.7174 21.529 36.8855 21.2409C37.3307 20.4554 37.9098 19.7525 38.5969 19.1636C39.2032 18.6555 39.8905 18.2512 40.6305 17.9673C41.4304 17.634 42.2871 17.4553 43.1544 17.4409V20.5466C43.1544 20.5466 41.5678 20.025 40.2981 20.9485C39.4104 21.6319 38.9393 22.2985 38.8006 23.4891C38.7948 24.3653 39.0111 25.6052 40.1975 26.4321C40.3359 26.523 40.4717 26.6037 40.6049 26.6742C40.8122 26.9535 41.0645 27.1968 41.3515 27.3944C42.5104 28.1548 43.4815 28.2079 44.7232 27.7141C45.5512 27.3839 46.1744 26.6398 46.4634 25.8153C46.645 25.3004 46.6426 24.7821 46.6426 24.2461V9H49.5326C49.6521 9.70393 49.9825 10.706 50.8562 11.6985C51.2067 12.0732 51.6015 12.4045 52.032 12.6852C52.1591 12.8216 52.8094 13.4958 53.6441 13.9098C54.0757 14.1237 54.5307 14.2877 55 14.3984Z" fill="black"/>
<path d="M40.5672 18.4506C39.8546 18.7281 39.1928 19.1233 38.6089 19.6199C37.9471 20.1968 37.3896 20.8852 36.9614 21.6545C36.7996 21.9351 36.1873 23.06 36.1126 24.8911C36.0704 25.929 36.3793 27.0005 36.5264 27.4467C36.5262 27.4478 36.5262 27.4489 36.5264 27.45C36.6191 27.7044 36.9814 28.6043 37.5746 29.3676C37.7469 29.5889 37.9317 29.8 38.128 30C37.4991 29.5614 36.9383 29.0312 36.4637 28.4266C35.8756 27.6722 35.5129 26.7816 35.4183 26.5188C35.4182 26.5169 35.4182 26.515 35.4183 26.5132V26.5099C35.2708 26.0641 34.9609 24.9921 35.0041 23.9529C35.0788 22.1217 35.691 20.9978 35.8529 20.7162C36.2809 19.9469 36.8384 19.2584 37.5004 18.6817C38.0842 18.1848 38.746 17.7897 39.4587 17.5124C39.9032 17.3264 40.3663 17.1892 40.84 17.1031C41.5538 16.9775 42.2828 16.9666 43 17.0708V17.9361C42.164 17.9499 41.3383 18.1245 40.5672 18.4506Z" fill="#69C9D0"/>
<path d="M49.6848 8.96288H46.8741V24.2105C46.8741 24.7465 46.8741 25.2634 46.6998 25.7797C46.4159 26.6038 45.812 27.348 45.0072 27.6782C43.7991 28.174 42.8546 28.119 41.728 27.3585C41.4483 27.1618 41.2023 26.9193 41 26.6407C41.9599 27.1637 42.819 27.1547 43.8834 26.7182C44.6877 26.388 45.2925 25.6438 45.5755 24.8192C45.7526 24.3043 45.7502 23.786 45.7502 23.2505V8H49.6314C49.6314 8 49.5879 8.37903 49.6848 8.96288ZM55 13.5131V14.3616C54.5443 14.2507 54.1027 14.0868 53.6836 13.873C52.8718 13.459 52.2394 12.7847 52.1157 12.6483C52.2592 12.7446 52.4081 12.8321 52.5617 12.9106C53.5487 13.414 54.5208 13.5643 55 13.5131Z" fill="#69C9D0"/>
</g>
</svg>
