<?xml version="1.0" encoding="UTF-8"?> <svg xmlns="http://www.w3.org/2000/svg" xmlns:xlink="http://www.w3.org/1999/xlink" width="105px" height="100px" viewBox="0 0 105 100" version="1.1"><title>icn_linkedin</title><g id="Social-Media-Pages" stroke="none" stroke-width="1" fill="none" fill-rule="evenodd"><g id="Social---Facebook-Ads" transform="translate(-506.000000, -3562.000000)" fill="#427FE0" fill-rule="nonzero"><g id="What-we-offer" transform="translate(88.000000, 3363.000000)"><g id="icn_linkedin" transform="translate(418.000000, 199.000000)"><path d="M12.6612204,0.0541649266 C5.00548026,0.0541649266 0,5.08131126 0,11.6888 C0,18.150362 4.85636721,23.320886 12.3674551,23.320886 L12.5127447,23.320886 C20.3182351,23.320886 25.1758768,18.150362 25.1758768,11.6888 C25.0299501,5.08131126 20.3182351,0.0541649266 12.6612204,0.0541649266 Z" id="Path"></path><polygon id="Path" points="1.32289967 32.5142741 23.7038643 32.5142741 23.7038643 99.848338 1.32289967 99.848338"></polygon><path d="M78.6386114,30.9339315 C66.5649215,30.9339315 58.4688519,42.2792618 58.4688519,42.2792618 L58.4688519,32.5142741 L36.0872502,32.5142741 L36.0872502,99.848338 L58.4675775,99.848338 L58.4675775,62.2463804 C58.4675775,60.2333555 58.6135042,58.2235165 59.2048582,56.7840029 C60.8227977,52.764325 64.5047409,48.5999949 70.6878313,48.5999949 C78.7864499,48.5999949 82.0255148,54.7748011 82.0255148,63.826723 L82.0255148,99.848338 L104.404568,99.848338 L104.404568,61.2401866 C104.404568,40.5580904 93.3625612,30.9339315 78.6386114,30.9339315 Z" id="Path"></path></g></g></g></g></svg> 