<?xml version="1.0" encoding="UTF-8"?> <svg xmlns="http://www.w3.org/2000/svg" xmlns:xlink="http://www.w3.org/1999/xlink" width="119px" height="84px" viewBox="0 0 119 84" version="1.1"><title>icn_youtube</title><g id="Social-Media-Pages" stroke="none" stroke-width="1" fill="none" fill-rule="evenodd"><g id="Social---Facebook-Ads" transform="translate(-818.000000, -3579.000000)" fill="#427FE0" fill-rule="nonzero"><g id="What-we-offer" transform="translate(88.000000, 3363.000000)"><g id="Group-11" transform="translate(0.000000, 164.000000)"><g id="icn_youtube" transform="translate(730.000000, 52.000000)"><path d="M116.547688,13.1439928 C115.176402,8.00428898 111.156965,3.9527171 106.059674,2.5687536 C96.7475674,0 59.498414,0 59.498414,0 C59.498414,0 22.2507131,0 12.9386063,2.47136343 C7.93936822,3.85386251 3.82187872,8.00502119 2.45059274,13.1439928 C0,22.5315131 0,42 0,42 C0,42 0,61.5666091 2.45059274,70.8560072 C3.82333126,75.9949788 7.84131541,80.0465507 12.9393326,81.4305142 C22.3487657,84 59.4998665,84 59.4998665,84 C59.4998665,84 96.7475674,84 106.059674,81.5286366 C111.157691,80.1454051 115.176402,76.0938334 116.54914,70.9548618 C118.999507,61.5666091 118.999507,42.0988546 118.999507,42.0988546 C118.999507,42.0988546 119.09706,22.5315131 116.547688,13.1439928 L116.547688,13.1439928 Z M47.6391144,59.9856686 L47.6391144,24.0143314 L78.6136176,42 L47.6391144,59.9856686 Z" id="Shape"></path></g></g></g></g></g></svg> 