<?xml version="1.0" encoding="UTF-8"?> <svg xmlns="http://www.w3.org/2000/svg" xmlns:xlink="http://www.w3.org/1999/xlink" width="100px" height="100px" viewBox="0 0 100 100" version="1.1"><title>icn_google_display</title><g id="Google-Pages" stroke="none" stroke-width="1" fill="none" fill-rule="evenodd"><g id="Google-Ads" transform="translate(-414.000000, -3698.000000)" fill="#427FE0"><g id="What-we-offer" transform="translate(101.000000, 3478.000000)"><g id="Group-5" transform="translate(119.000000, 163.000000)"><g id="icn_google_display" transform="translate(194.000000, 57.000000)"><path d="M54.1666016,43.75 C53.0166016,43.75 52.0833984,44.6833984 52.0833984,45.8333984 L52.0833984,50 L56.25,50 L56.25,45.8333984 C56.25,44.6833984 55.3167969,43.75 54.1666016,43.75" id="Fill-1"></path><path d="M77.0833984,43.75 L77.0833984,56.25 C80.5292969,56.25 83.3333984,53.4458984 83.3333984,50 C83.3333984,46.5541016 80.5292969,43.75 77.0833984,43.75" id="Fill-3"></path><path d="M77.0833984,62.5 L73.9583984,62.5 C72.2333984,62.5 70.8333984,61.1 70.8333984,59.375 L70.8333984,40.625 C70.8333984,38.9 72.2333984,37.5 73.9583984,37.5 L77.0833984,37.5 C83.975,37.5 89.5833984,43.1083984 89.5833984,50 C89.5833984,56.8916016 83.975,62.5 77.0833984,62.5 L77.0833984,62.5 Z M62.5,59.375 C62.5,61.1 61.1,62.5 59.375,62.5 C57.65,62.5 56.25,61.1 56.25,59.375 L56.25,56.25 L52.0833984,56.25 L52.0833984,59.375 C52.0833984,61.1 50.6833984,62.5 48.9583984,62.5 C47.2332031,62.5 45.8333984,61.1 45.8333984,59.375 L45.8333984,45.8333984 C45.8333984,41.2375 49.5708984,37.5 54.1666016,37.5 C58.7625,37.5 62.5,41.2375 62.5,45.8333984 L62.5,59.375 Z M92.7083984,25 L40.625,25 C36.6042969,25 33.3333984,28.2708984 33.3333984,32.2917969 L33.3333984,67.7083984 C33.3333984,71.7291016 36.6042969,75 40.625,75 L92.7083984,75 C96.7291016,75 100,71.7291016 100,67.7083984 L100,32.2917969 C100,28.2708984 96.7291016,25 92.7083984,25 L92.7083984,25 Z" id="Fill-5"></path><path d="M3.125,33.3333008 L21.875,33.3333008 C23.6,33.3333008 25,31.9333008 25,30.2083008 C25,28.4833008 23.6,27.0833008 21.875,27.0833008 L3.125,27.0833008 C1.4,27.0833008 0,28.4833008 0,30.2083008 C0,31.9333008 1.4,33.3333008 3.125,33.3333008" id="Fill-7"></path><path d="M3.125,45.8333008 L21.875,45.8333008 C23.6,45.8333008 25,44.4333008 25,42.7083008 C25,40.9833008 23.6,39.5833008 21.875,39.5833008 L3.125,39.5833008 C1.4,39.5833008 0,40.9833008 0,42.7083008 C0,44.4333008 1.4,45.8333008 3.125,45.8333008" id="Fill-9"></path><path d="M3.125,60.4166016 L21.875,60.4166016 C23.6,60.4166016 25,59.0166016 25,57.2916016 C25,55.5666016 23.6,54.1666016 21.875,54.1666016 L3.125,54.1666016 C1.4,54.1666016 0,55.5666016 0,57.2916016 C0,59.0166016 1.4,60.4166016 3.125,60.4166016" id="Fill-11"></path><path d="M3.125,72.9166016 L21.875,72.9166016 C23.6,72.9166016 25,71.5166016 25,69.7916016 C25,68.0666016 23.6,66.6666016 21.875,66.6666016 L3.125,66.6666016 C1.4,66.6666016 0,68.0666016 0,69.7916016 C0,71.5166016 1.4,72.9166016 3.125,72.9166016" id="Fill-13"></path><path d="M3.125,6.25 L96.875,6.25 C98.6,6.25 100,4.85 100,3.125 C100,1.4 98.6,0 96.875,0 L3.125,0 C1.4,0 0,1.4 0,3.125 C0,4.85 1.4,6.25 3.125,6.25" id="Fill-15"></path><path d="M3.125,18.75 L96.875,18.75 C98.6,18.75 100,17.35 100,15.625 C100,13.9 98.6,12.5 96.875,12.5 L3.125,12.5 C1.4,12.5 0,13.9 0,15.625 C0,17.35 1.4,18.75 3.125,18.75" id="Fill-17"></path><path d="M3.125,87.5 L96.875,87.5 C98.6,87.5 100,86.1 100,84.375 C100,82.65 98.6,81.25 96.875,81.25 L3.125,81.25 C1.4,81.25 0,82.65 0,84.375 C0,86.1 1.4,87.5 3.125,87.5" id="Fill-19"></path><path d="M3.125,100 L96.875,100 C98.6,100 100,98.6 100,96.875 C100,95.15 98.6,93.75 96.875,93.75 L3.125,93.75 C1.4,93.75 0,95.15 0,96.875 C0,98.6 1.4,100 3.125,100" id="Fill-21"></path></g></g></g></g></g></svg> 